<?xml version="1.0" encoding="utf-8"?>
<!-- Generator: Adobe Illustrator 28.2.0, SVG Export Plug-In . SVG Version: 6.00 Build 0)  -->
<svg version="1.1" id="图层_1" xmlns="http://www.w3.org/2000/svg" xmlns:xlink="http://www.w3.org/1999/xlink" x="0px" y="0px"
	 viewBox="0 0 359.2 200" style="enable-background:new 0 0 359.2 200;" xml:space="preserve">
<style type="text/css">
	.st0{fill:#DDDDDD;}
	.st1{fill:#1A3359;}
	.st2{fill:#407C9F;}
	.st3{fill:#558EB0;}
	.st4{fill:#6FA3C5;}
	.st5{fill:#88B7D9;}
	.st6{fill:#AAD1F5;}
</style>
<path class="st0" d="M280.6,83.1h77v13.8h-77V83.1z"/>
<path class="st1" d="M359.3,98.6h-80.4V81.4h80.4V98.6z M282.3,95.2h73.6V84.8h-73.6V95.2L282.3,95.2z"/>
<path class="st2" d="M42.7,1.7l-41,13.5v149.6l41,13.5h199.9V1.7H42.7z"/>
<path class="st3" d="M42.7,21.3l-41,10.5v116.4l41,10.5h199.9V21.3H42.7z"/>
<path class="st4" d="M42.7,40.8l-41,7.5v83.3l41,7.5h199.9V40.8H42.7z"/>
<path class="st5" d="M42.7,60.4L1.7,65v50l41,4.5h199.9V60.4H42.7z"/>
<path class="st6" d="M42.7,80l-41,1.5v16.9l41,1.5h199.9V80H42.7z"/>
<path class="st1" d="M244.3,180l-202.1-0.1L0,166V14L42.7,0h201.6V180L244.3,180z M43,176.6h197.9V3.4H43l-39.6,13v147.1L43,176.6
	L43,176.6z"/>
<path class="st2" d="M273.6,145.5l-31,13.5V21l31,13.5V145.5z"/>
<path class="st3" d="M273.6,133.5l-31,10.6V35.9l31,10.6V133.5z"/>
<path class="st4" d="M273.6,121.5l-31,7.7V50.8l31,7.7V121.5z"/>
<path class="st5" d="M273.6,109.5l-31,4.7V65.8l31,4.7V109.5z"/>
<path class="st6" d="M273.6,97.5l-31,1.8V80.7l31,1.8V97.5z"/>
<path class="st1" d="M240.9,161.6V18.4l34.4,15v113.2L240.9,161.6z M244.3,23.6v132.8l27.6-12V35.6L244.3,23.6z"/>
<path class="st1" d="M273.6,49.4h14.1v81.1h-14.1V49.4z M69.7,178.3h145.8v20H69.7V178.3z"/>
<path class="st6" d="M80.7,115.5h82.8v82.8H80.7V115.5z"/>
<path class="st1" d="M165.2,200H79v-86.2h86.2V200L165.2,200z M82.4,196.6h79.4v-79.4H82.4C82.4,117.2,82.4,196.6,82.4,196.6z"/>
<path class="st1" d="M91.8,125.1h11.3v11.3H91.8V125.1z M141.5,125.1h11.3v11.3h-11.3V125.1z M91.8,177h11.3v11.3H91.8V177z
	 M141.5,177h11.3v11.3h-11.3V177z M57.5,10.1H235v3.8H57.5V10.1z M57.5,19.1H235v3.8H57.5V19.1z M57.5,28H235v3.8H57.5V28z M57.5,37
	H235v3.8H57.5V37z M57.5,45.9H235v3.8H57.5V45.9z M57.5,54.9H235v3.8H57.5V54.9z M57.5,63.8H235v3.8H57.5V63.8z M57.5,72.7H235v3.8
	H57.5V72.7z M57.5,81.7H235v3.8H57.5V81.7z M57.5,90.6H235v3.8H57.5V90.6z M57.5,99.6H235v3.8H57.5V99.6z"/>
</svg>
